Coordinates
nRows=14
nColumns=24

# SIMM Motion File Header:
name Coordinates
datacolumns 24
datarows 14
otherdata 1
range 0.87500000000000000000 0.88800000000000001000

Units are S.I. units (second, meters, Newtons, ...)
Angles are in degrees.

endheader
time	pelvis_tx	pelvis_ty	pelvis_tz	pelvis_tilt	pelvis_list	pelvis_rotation	hip_flexion_r	hip_adduction_r	hip_rotation_r	knee_angle_r	ankle_angle_r	subtalar_angle_r	mtp_angle_r	hip_flexion_l	hip_adduction_l	hip_rotation_l	knee_angle_l	ankle_angle_l	subtalar_angle_l	mtp_angle_l	lumbar_extension	lumbar_bending	lumbar_rotation
      0.87500000000000000000	      0.61265151659670769000	      1.02000509383862780000	      0.03070673306920027700	      4.82186414991021820000	     -1.52741746346060410000	      3.15602192715416670000	      9.58433587000673270000	      2.05052025150545440000	     -6.94888764184502160000	    -20.19800508585394300000	      5.54349241034588580000	      0.00054030410562771396	      0.03480599365222424700	      5.93425773351318230000	     -6.08068057525049090000	     -3.40678600958608690000	    -67.40891530119461100000	     -4.87971166831778010000	      0.00478002318171399500	      0.02941597175529153700	    -15.26247853151453300000	      4.68836507718268880000	     -3.52020887195734660000
      0.87600000000000000000	      0.61261783241404011000	      1.02019018380915520000	      0.03089751319793573500	      4.82706844167257730000	     -1.52716460909709610000	      3.14333050700250240000	      9.47430202007379130000	      2.07223510175079360000	     -6.93316830909005950000	    -20.11978561766245100000	      5.56292547286592760000	      0.00106655064309871390	      0.03405293401645734900	      6.07425772190107780000	     -6.09815658173847020000	     -3.43803927009249840000	    -67.50205091446721900000	     -4.80590823184852580000	      0.00474600918863783260	      0.02940573139028128400	    -15.26719522883108100000	      4.67895467067457020000	     -3.48207835597415150000
      0.87700000000000000000	      0.61258351706163461000	      1.02037496098554990000	      0.03108725287104505100	      4.83226718878757570000	     -1.52639378003598550000	      3.13035823955909230000	      9.36416380855008510000	      2.09329984580452690000	     -6.91693715151267870000	    -20.04120471574143600000	      5.58214037640152760000	      0.00160154805633195530	      0.03328919014707508500	      6.21348047329283220000	     -6.11430521474604750000	     -3.46831617589142290000	    -67.59198629221135900000	     -4.73070707821680610000	      0.00471161389196301290	      0.02939264877592126500	    -15.27198266293632600000	      4.66895537604320850000	     -3.44389833765405440000
      0.87800000000000000000	      0.61254856875046226000	      1.02055939202310330000	      0.03127594170243276600	      4.83745846040111350000	     -1.52510804412621300000	      3.11710410300088590000	      9.25392884722729470000	      2.11371478846747560000	     -6.90019561425101370000	    -19.96227771063359000000	      5.60115207953138580000	      0.00214621245953080860	      0.03251546659581244100	      6.35193354956037750000	     -6.12912435641380780000	     -3.49761456858710410000	    -67.67873631748725000000	     -4.65417005335346530000	      0.00467684227381527220	      0.02937677977194329300	    -15.27683940411205500000	      4.65837288298928880000	     -3.40567078460525650000
      0.87900000000000000000	      0.61251298561492040000	      1.02074344322036810000	      0.03146356976240338700	      4.84264036006743130000	     -1.52331066274961620000	      3.10356729482186600000	      9.14360467482219090000	      2.13348043567147670000	     -6.88294561667613270000	    -19.88301959004043700000	      5.61997396749116350000	      0.00270435534719860090	      0.03173508185556565100	      6.48962462133672880000	     -6.14261266808349760000	     -3.52593292530493190000	    -67.76231604615139800000	     -4.57635898401191450000	      0.00464166191809976810	      0.02935818532063837200	    -15.28176404159132700000	      4.64721302812994800000	     -3.36739780240989760000
      0.88000000000000000000	      0.61247676527621142000	      1.02092708209559380000	      0.03165012785581701500	      4.84781100715033820000	     -1.52100526699919980000	      3.08974713947734570000	      9.03319896765950330000	      2.15259782063293590000	     -6.86518943697201060000	    -19.80344578054275600000	      5.63862073312946420000	      0.00327679728791343710	      0.03094863417830414500	      6.62656146044638650000	     -6.15476982324767350000	     -3.55327047123926710000	    -67.84274071706660400000	     -4.49733560537644020000	      0.00460607877599176090	      0.02933692018928470500	    -15.28675519971267400000	      4.63548194598605520000	     -3.32908149357505810000
      0.88100000000000001000	      0.61243990483375188000	      1.02111027763364670000	      0.03183560750441143800	      4.85296854077675110000	     -1.51819584308904430000	      3.07564309448610370000	      8.92271952151057230000	      2.17106847496938600000	     -6.84692971794236000000	    -19.72357209093003400000	      5.65710825633973880000	      0.00386181410272190590	      0.03015421118134842300	      6.76275191805793870000	     -6.16559648769581780000	     -3.57962717217478500000	    -67.92002573017288100000	     -4.41716152068012140000	      0.00457013232748495690	      0.02931303360076014900	    -15.29181154165965100000	      4.62318605259221370000	     -3.29072396555670600000
      0.88200000000000001000	      0.61240240115037659000	      1.02129299933605270000	      0.03202000081714187500	      4.85811113525412710000	     -1.51488663886380030000	      3.06125479855442300000	      8.81217413604922410000	      2.18889426222463790000	     -6.82816952858746260000	    -19.64341432261317900000	      5.67545211340277420000	      0.00445807270923789890	      0.02935011461023672600	      6.89820390253774640000	     -6.17509419877814470000	     -3.60500367710599700000	    -67.99418660931530700000	     -4.33589817347142860000	      0.00453385812542950360	      0.02928657463539255000	    -15.29693176397702600000	      4.61033196458328300000	     -3.25232740143986200000
      0.88300000000000001000	      0.61236425110102588000	      1.02147521638329300000	      0.03220330041562478200	      4.86323701125127530000	     -1.51108209518305210000	      3.04658210514479410000	      8.70157053543418970000	      2.20607725619619010000	     -6.80891239166661940000	    -19.56298795383479900000	      5.69366639398904170000	      0.00506648210508786610	      0.02853694052517631900	      7.03292536276656930000	     -6.18326527580601760000	     -3.62940127901470520000	    -68.06523896890072900000	     -4.25360681589104410000	      0.00449726082557109180	      0.02925759620423053900	    -15.30211458980658700000	      4.59692643850947300000	     -3.21389411011363050000
      0.88400000000000001000	      0.61232545153128537000	      1.02165689790273120000	      0.03238549943642125800	      4.86834443738405480000	     -1.50678684181313560000	      3.03162508275892510000	      8.59091635875521580000	      2.22261973193993520000	     -6.78916228004893710000	    -19.48230812458839300000	      5.71176357027347330000	      0.00569014159140549670	      0.02771776282094529800	      7.16692426778977780000	     -6.19011281312049370000	     -3.65282191619585820000	    -68.13319849433287300000	     -4.17034846685098600000	      0.00446031390777385310	      0.02922615527263076900	    -15.30735877286481800000	      4.58297636365749830000	     -3.17542652548638890000
      0.88500000000000001000	      0.61228599886458335000	      1.02183801433558140000	      0.03256659174634055800	      4.87343171423463680000	     -1.50200584879412480000	      3.01638393547113060000	      8.48021934167826070000	      2.23852445004185970000	     -6.76892353090411000000	    -19.40139035489570300000	      5.72975726892801700000	      0.00632958941670402030	      0.02689311326881641700	      7.30020859555205080000	     -6.19564088483656850000	     -3.67526826577143550000	    -68.19808094908235300000	     -4.08618384437427550000	      0.00442302507792352150	      0.02919230349533424500	    -15.31266311360155900000	      4.56848889468622940000	     -3.13692708355882250000
      0.88600000000000001000	      0.61224588908530242000	      1.02201853761861680000	      0.03274657191172738300	      4.87849717996714280000	     -1.49674440991257110000	      3.00085901181813020000	      8.36948728581599250000	      2.25379462765094240000	     -6.74820084579598940000	    -19.32025049038797000000	      5.74766214510429750000	      0.00698333140687691210	      0.02606121682966988000	      7.43278630753234460000	     -6.19985452389902390000	     -3.69674373329758140000	    -68.25990215267602000000	     -4.00117332534439200000	      0.00438543077780710350	      0.02915608777103765100	    -15.31802646554770100000	      4.55347143546946940000	     -3.09839823268342180000
      0.88700000000000001000	      0.61220511800153410000	      1.02219844033456010000	      0.03292543509811066100	      4.88353922360689200000	     -1.49100805979727210000	      2.98505084564573230000	      8.25872796179120710000	      2.26843378720564860000	     -6.72699932808865060000	    -19.23890433874239700000	      5.76549246451598750000	      0.00765044241467514530	      0.02522055162585347700	      7.56466532938005900000	     -6.20275961265656230000	     -3.71725240517747140000	    -68.31867794475319000000	     -3.91537691624892580000	      0.00434756272179048950	      0.02911755506097137700	    -15.32344772881635500000	      4.53793156564023900000	     -3.05984249465885760000
      0.88800000000000001000	      0.61216368147381373000	      1.02237769498970500000	      0.03310317703505582400	      4.88855629448853970000	     -1.48480251852635830000	      2.96896018287507650000	      8.14794904621393460000	      2.28244565971673020000	     -6.70532452406795270000	    -19.15736739158208800000	      5.78326101548880180000	      0.00833155427420324660	      0.02437167239488953100	      7.69585353714484380000	     -6.20436280881869350000	     -3.73679901914850010000	    -68.37442415376843000000	     -3.82885421864249590000	      0.00430942710359963080	      0.02907675520969840400	    -15.32892584244683900000	      4.52187698911110570000	     -3.02126250540164550000
